<svg width="256" height="256" viewBox="0 0 256 256" fill="none" xmlns="http://www.w3.org/2000/svg">
<path fill-rule="evenodd" clip-rule="evenodd" d="M235.303 57.7465C235.517 58.1854 235.555 58.8253 235.789 59.1742C237.679 61.9841 240.091 65.6847 241.582 68.6885C242.05 69.6293 242.218 70.8518 242.655 71.8348C241.869 72.2053 240.806 72.3053 240.09 72.7098C239.886 72.824 239.923 73.3427 239.714 73.478C236.905 75.3063 236.862 75.6857 234.992 78.2816C234.857 78.468 234.112 78.6012 233.863 79.6263C233.82 79.8008 234.102 80.0499 234.058 80.1995C233.836 80.9531 233.131 81.7633 232.934 82.4957C232.889 82.6644 232.584 84.8744 232.577 85.1711C232.567 85.629 232.57 86.7025 232.59 87.0794C232.617 87.5884 233.098 88.2304 233.175 88.7926C233.206 89.0317 232.761 89.3371 232.799 89.5609C233.051 90.9147 234.139 94.0111 234.751 95.2803C235.089 95.9714 236.856 98.7014 237.449 99.4653C237.677 99.7584 238.489 99.6542 238.507 100.697L235.949 102.53C237.809 104.038 238.439 101.603 239.749 101.552C240.62 101.62 240.918 102.566 241.093 102.687C242.712 103.862 247.419 105.43 249.305 105.311C249.987 105.27 251.31 105.164 251.782 105.106C252.405 105.027 253.11 104.569 253.775 104.425C254.402 105.234 253.656 105.809 253.691 106.047C253.809 106.787 254.431 107.676 254.471 108.334C254.531 109.299 252.447 111.379 252.029 112.36L254.407 111.868C254.552 112.536 255.01 113.243 255.09 113.868C255.228 114.966 255.172 117.173 255.318 118.256C255.405 118.885 255.855 119.589 256 120.256C254.644 119.721 253.846 120.562 252.667 120.754C252.438 120.793 252.121 120.332 251.9 120.375C248.868 121.007 245.853 123.033 243.936 125.005C242.232 126.163 240.633 129.14 239.982 131.141C239.823 131.63 239.721 133.2 239.625 133.815C238.642 140.152 239.339 146.869 244.34 151.356L243.595 152.889L244.848 154.695C246.919 153.809 248.811 153.278 250.85 154.559L253.04 154.453L249.069 169.851L241.819 168.179L244.377 166.346L244.364 164.438L242.746 164.349L242 165.884L240.667 165.7C239.07 168.349 236.331 169.034 234.036 170.515C233.278 171.004 232.094 171.554 231.38 172.06C231.287 172.124 230.172 173.624 230.062 173.789C228.727 175.691 226.008 181.878 225.57 183.941C225.381 184.845 224.96 189.293 225.047 189.865C225.316 191.609 227.009 193.616 226.231 195.206L227.271 194.531C227.823 197.516 230.94 198.423 232.56 200.704L223.612 213.648L221.596 211.463L222.149 209.362L219.668 208.615C218.555 211.394 215.301 208.584 213.953 208.653C213.538 208.673 213.14 209.077 212.815 209.041C212.404 208.996 210.933 208.456 210.716 208.478C209.538 208.617 204.481 210.4 203.304 211.006C203.102 211.107 203.133 211.647 202.928 211.775C201.284 212.771 199.494 213.676 198.382 215.239L194.049 221.183L190.241 221.203L188.923 222.932L187.59 222.747L187.319 224.753L189.027 224.17L189.236 226.652L187.617 226.563L185.922 229.056C183.347 228.258 186.029 226.696 184.843 224.958L181.634 228.605L182.057 233.566L183.39 233.751L182.072 235.481L183.488 234.038C184.277 231.19 187.099 230.785 188.341 233.342L190.14 232.088L191.445 228.45L194.61 231.203C193.996 231.496 193.165 231.568 192.616 231.883C189.766 233.534 186.676 235.995 183.705 237.476C182.767 237.944 181.553 238.109 180.567 238.547C180.383 237.26 178.972 237.198 177.981 236.557C175.821 235.164 174.299 234.518 171.672 233.924C170.905 233.751 168.786 233.149 168.236 233.183C167.717 233.213 167.082 233.704 166.528 233.765C166.288 233.79 165.984 233.351 165.761 233.388C164.411 233.638 161.324 234.723 160.064 235.332C159.511 235.598 157.687 237.191 157.038 237.643C155.083 239.001 153.774 239.596 151.732 240.734C151.534 240.846 151.571 241.346 151.356 241.502C151.056 241.726 150.538 241.666 150.219 241.89C149.555 242.353 149.45 245.075 149.967 245.808L147.311 247.354L147.227 248.976C147.629 249.369 149.053 249.038 149.515 249.155C150.253 249.339 150.845 249.764 150.956 250.577C147.456 251.534 143.902 253.309 140.414 254.173C140.202 254.226 139.866 253.746 139.647 253.795C138.425 254.065 137.175 254.741 135.943 255.059C135.799 254.392 135.341 253.685 135.261 253.059C135.231 252.82 135.681 252.513 135.637 252.291C134.99 249.179 133.128 247.146 131.768 244.673C129.734 243.48 127.488 241.68 125.069 240.893C124.589 240.737 122.993 240.643 122.398 240.526C117.932 239.682 112.642 239.472 109.081 242.516L103.921 240.445L98.1133 241.146C100.074 242.947 101.546 244.742 102.161 247.424L99.792 248.872C98.1 251.298 96.2683 252.979 93.3356 251.395L91.6773 246.535L93.7612 245.184C93.5519 243.842 92.9396 243.449 91.7463 242.999L91.9273 241.658L90.8681 240.426L90.2065 241.292C88.4039 240.813 88.6431 238.767 87.8867 237.298C87.7857 237.095 87.2428 237.127 87.1206 236.919C85.1512 233.522 82.4952 230.34 79.0479 228.183C76.6064 226.655 71.594 225.237 68.9323 225.569C68.1134 224.908 66.5481 225.966 65.8797 225.017C65.6325 224.666 65.2572 223.829 65.6782 223.494C66.1336 223.127 66.7586 222.715 67.191 222.337C68.6118 221.117 69.0551 221.349 70.4128 220.598C70.5687 220.513 70.6829 219.502 71.9256 219.442C72.7698 219.935 73.7825 220.248 74.6021 220.762C80.844 224.659 85.8617 229.902 93.9131 229.81L108.253 236.408C110.043 236.065 112.275 234.658 113.95 234.464C114.48 234.405 116.632 235.161 117.387 235.204C128.041 235.842 140.688 235.666 151.088 233.276C152.472 232.958 154.485 231.791 155.648 231.72C156.705 231.66 158.253 234.12 160.417 232.646C160.681 232.466 160.847 231.456 161.163 231.112C163.343 228.749 166.647 227.737 169.892 226.853C170.096 226.798 170.455 227.288 170.658 227.231C177.978 225.201 180.196 222.762 185.643 218.926C189.178 216.441 193.748 214.037 196.815 210.649C204.86 201.768 214.162 192.778 220.213 182.242C223.474 176.562 225.053 169.427 230.368 165.374L231.304 163.462C231.162 161.309 231.96 158.97 232.204 156.769C233.321 146.804 234.669 135.499 234.813 125.246C235.078 105.961 227.228 84.1868 217.015 67.4925L213.941 64.0757L217.713 59.2765C220.062 60.1961 222.782 61.1175 225.153 60.5706L227.357 62.3711L227.328 62.3808L222.844 61.3583C222.009 62.3083 223.756 63.1561 223.813 63.2601C224.242 64.1054 224.338 65.3779 224.789 66.1198C224.83 66.1832 225.644 66.98 225.751 67.0712C227.901 68.9031 229.938 68.5154 231.078 65.8935L229.549 65.1349L229.243 62.3668L230.296 62.648C232.435 62.1868 231.673 61.2819 231.607 59.9672C231.542 58.6526 234.159 58.1881 235.303 57.7465ZM145.471 248.596C145.842 248.469 145.646 247.896 145.275 248.023C144.904 248.15 145.099 248.723 145.471 248.596ZM93.3496 245.959L93.5446 246.532L95.4486 246.521L95.4475 246.516L94.8624 244.802L93.3496 245.959ZM146.28 242.575L145.143 242.963L146.391 243.816L146.677 243.719L146.286 242.573L146.28 242.575ZM150.041 238.745C148.965 239.499 147.683 238.573 146.727 239.229C146.03 239.711 146.246 241.109 146.651 241.809L149.021 240.36L150.041 238.745ZM103.189 237.496L103.581 238.641L104.717 238.253L104.326 237.107L103.189 237.496ZM95.3732 236.97L96.5293 238.488L97.9527 238.002L98.9796 236.376L95.3732 236.97ZM178.361 228.436L178.753 229.582L180.462 228.999L180.07 227.853L178.361 228.436ZM222.953 206.203L223.538 207.916L224.675 207.528L224.09 205.814L222.953 206.203ZM214.965 196.797L214.225 199.283C215.577 199.954 216.808 200.161 217.007 201.845L220.62 201.253C220.639 200.018 219.079 200.064 218.8 199.641C218.373 199.006 218.003 196.631 217.727 196.495L214.965 196.797ZM224.211 196.842L224.797 198.555L225.368 198.36L224.784 196.647L224.211 196.842ZM224.196 194.927L224.588 196.073L225.334 194.539L224.196 194.927ZM243.331 157.765L242.194 158.153L242.779 159.866L243.623 158.619L243.33 157.759L243.331 157.765ZM244.553 120.324L244.944 121.469L245.515 121.274L245.124 120.129L244.553 120.324ZM249.086 114.95C247.717 114.957 247.663 117.157 247.105 117.539C246.486 117.968 244.809 117.709 245.306 118.792L247.782 118.588L248.173 119.734L251.395 117.995L249.086 114.95ZM252.718 116.264L253.109 117.41L254.246 117.022L253.855 115.876L252.718 116.264ZM230.898 80.3051L227.286 80.8977L228.833 83.5624C229.562 83.9407 230.984 81.0624 230.904 80.303L230.898 80.3051ZM231.006 69.4234L229.869 69.8113L230.455 71.5256L231.298 70.2779L231.005 69.418L231.006 69.4234Z" fill="#FF0080"/>
<path d="M62.7959 225.423C62.2344 227.349 60.12 227.508 59.2046 228.882L54.7631 233.59C54.6808 232.377 53.5795 232.497 52.9432 231.978C52.8107 231.87 52.8806 231.513 52.7482 231.405C52.1119 230.886 50.987 230.451 50.2591 229.701C49.3349 228.75 51.2584 228.496 51.1955 227.789C53.5049 227.378 55.8919 223.755 58.0215 223.546C58.2676 223.52 58.5655 223.962 58.7887 223.925C59.801 223.739 60.882 223.103 61.9188 222.856L62.7959 225.423Z" fill="#FF0080"/>
<path fill-rule="evenodd" clip-rule="evenodd" d="M116.261 24.9677C125.169 24.5258 132.828 23.6397 141.792 25.194C143.19 25.4399 144.752 26.0527 146.079 25.6444L146.484 28.6991L148.96 28.4944C150.11 30.3342 147.686 31.3984 149.753 32.6891L147.668 34.0403L148.644 36.9L149.197 34.7978C149.933 34.4125 151.156 34.3343 151.762 33.9229C152.047 33.7296 152.231 32.5857 152.508 32.3885C154.014 31.3627 156.147 32.2282 157.835 31.2108C157.972 31.1256 158.921 29.8484 159.153 29.4814C161.018 29.8431 162.883 30.7296 164.693 31.7366C166.874 32.9501 169.783 35.0804 171.97 36.2729C173.061 36.8729 178.598 39.3021 178.857 39.6681C179.734 40.9299 178.017 42.8335 177.942 44.4458C179.706 45.8207 180.112 44.1287 180.606 43.8574C181.406 43.418 182.584 43.2975 183.457 42.8845C184.868 43.8041 187.709 43.4171 187.862 45.5276L187.583 46.5814L190.149 45.7064C190.495 45.9338 190.996 46.038 191.299 46.2732C191.543 46.465 192.198 47.5797 192.455 47.7925C195.981 50.7416 199.189 53.4664 202.054 57.281C203.245 58.8644 203.182 60.3253 204.381 62.2321C204.594 62.5754 205.642 62.8447 205.732 64.3236C205.625 65.224 204.834 65.4114 204.603 65.6694C203.429 66.9783 203.046 67.8567 201.005 68.1756C200.769 68.2111 200.193 67.4614 199.387 68.0884L199.694 70.8565L201.416 72.1818C200.806 74.0787 198.302 73.9742 196.578 74.7926L193.47 67.555L192.819 69.3695L192.93 71.5644C191.923 71.8634 191.578 70.7595 191.307 70.5257C184.323 64.6233 178.17 56.6846 170.397 52.1327C167.998 50.731 165.191 49.7241 162.747 48.3571L164.403 41.0936L163.533 39.4774L158.135 43.2325L154.307 41.3458C153.637 43.0459 150.809 42.348 150.138 44.0482C148.385 43.7891 146.703 42.917 145.174 42.5494C144.501 42.3889 143.213 42.3162 142.503 42.1808C141.524 42.0031 140.473 41.4472 139.547 41.9104L140.197 40.0948L138.287 39.1541C137.361 39.1888 136.959 40.7195 137.449 41.3522L137.163 41.4503C136.631 41.2737 135.51 40.9206 135.064 40.8868C132.62 40.7354 129.892 41.0453 127.443 40.9342C126.679 40.9007 126.039 40.9714 125.539 40.9439C125.285 40.9279 125.046 40.6006 124.773 40.5657C124.335 40.5167 123.715 40.8309 123.056 40.1918C123.063 39.0703 122.174 38.9895 121.9 38.6736C121.569 38.2814 121.158 37.0973 120.549 36.5821C120.341 36.4035 118.744 35.6302 118.639 35.6404C117.1 35.7305 116.432 37.4173 114.846 37.5745L113.166 41.9804C111.901 41.1709 110.388 42.5505 108.982 42.7681L105.453 42.6916L106.863 40.2984L107.135 38.2921L104.766 39.7403L102.186 38.708L104.024 42.2261L103.94 43.8477L97.6715 45.9866C97.4755 45.1323 96.9365 44.2414 96.7944 43.4135C96.536 41.8894 96.4333 39.4035 96.1748 37.8794C96.0326 37.0515 95.4936 36.1608 95.2977 35.3064L92.1794 38.2835C91.005 37.6077 89.5919 37.0935 88.1787 36.9916L89.2788 37.7178L90.2658 39.8524C89.5132 39.2004 87.2874 40.7203 87.4643 40.9687C89.6607 41.2649 90.5345 41.8876 91.3702 43.8876L92.6966 43.6182C93.1859 44.7374 94.4821 45.7673 93.9552 47.0759C92.5249 46.5672 91.3549 48.028 90.1203 48.5403L89.8466 47.2225L88.7465 47.855L89.1064 48.9099C88.7875 49.0425 88.4565 49.1588 88.1205 49.2708L88.1959 49.8925L87.3188 49.6566L76.8099 54.8965C74.384 56.5307 71.9836 58.2584 69.4689 59.8218L69.6262 60.8087L64.8324 67.0044L63.3874 70.0483C60.9124 69.927 60.5594 68.0186 59.4244 66.1758L59.7002 62.8183L58.2952 63.3786C57.7074 64.3773 58.1218 66.2639 56.7737 66.7081C56.7285 66.8775 57.7612 69.6792 57.7402 70.0871C57.6337 72.2341 55.6592 73.5858 55.0088 75.5867C53.6561 77.0734 50.2115 74.3545 49.2894 75.9197C48.0924 77.9488 47.93 82.7994 46.7896 85.225C46.7165 85.3804 45.6947 85.5883 45.7358 86.8122C45.7468 87.1463 46.4959 87.554 45.9308 88.4209L44.4751 88.0297L42.472 89.6729L47.8013 90.7925C47.0092 91.8738 48.845 93.1862 48.8465 93.8806C48.8499 94.2879 48.4311 95.8004 48.2216 96.2069C47.9863 96.6626 45.9284 98.186 45.6916 98.6475C45.1526 99.6971 44.3721 103.113 44.1292 104.461C44.0908 104.675 44.5926 104.979 44.558 105.201C44.2245 107.306 43.3601 109.099 43.5808 111.171L39.5283 116.941C40.1047 117.409 39.7423 118.061 39.8019 118.258C40.1138 119.361 41.6255 120.849 41.9376 121.952C41.978 122.081 42.2109 123.201 42.2112 123.27C42.1726 124.253 41.1442 125.327 42.0141 126.336L40.0519 125.497L39.0175 125.844C39.5173 124.59 39.2288 123.144 38.4982 121.966L36.8776 126.832C37.2061 128.083 38.0101 127.867 38.6835 128.254C39.0966 128.49 38.7966 129.466 39.8526 128.569L41.0335 132.318L39.5897 135.362C39.6715 135.503 40.2269 135.371 40.4668 135.598C41.4622 136.56 42.103 137.769 42.389 138.921C43.6778 144.113 43.9677 149.823 46.2228 154.918L44.975 154.895L44.0376 158.383L47.2486 159.245C48.2984 161.265 49.2952 163.321 50.2947 165.365C57.1876 179.452 61.9007 187.883 75.3316 196.724C75.6948 196.959 75.9794 197.955 77.2161 197.855L75.184 205.418L76.9328 205.888L75.8272 210C76.5178 210.437 77.3673 210.697 77.4284 210.533C76.4501 208.545 76.4796 207.473 77.6741 205.664L76.7119 204.713C77.3683 203.683 77.5005 202.032 78.8809 201.74C78.9876 202.159 79.2166 202.47 79.5134 202.719C79.5907 202.676 79.6569 202.632 79.6976 202.573C80.0709 202.023 79.8471 201.063 81.1221 200.774L81.7061 200.931C82.0206 202.047 83.0876 201.74 83.8827 202.141C87.1998 203.82 90.6826 206.169 94.3398 207.445C97.0511 208.392 102.882 209.114 104.842 210.266C105.828 210.844 104.815 212.723 105.809 213.646C107.689 212.995 106.556 212.171 106.883 210.815C109.335 211.817 111.588 211.109 114.04 212.112L113.492 214.147L113.869 214.48L114.991 214.313C115.345 214.901 115.494 215.429 115.506 215.928L116.021 216.383L115.789 212.582L124.27 213.616L123.487 216.526L129.434 219.993L126.897 222.382C127.116 222.624 127.382 222.765 127.725 222.745C130.077 222.607 134.195 220.038 136.844 219.633C137.014 219.607 137.756 220.34 138.749 219.623C139.02 219.428 138.942 218.578 139.976 218.564L140.463 219.992L142.944 220.738L140.902 215.689C142.241 215.744 142.308 213.488 142.884 213.1C143.22 212.87 144.71 212.375 145.164 212.322C145.673 212.264 148.085 213.124 148.6 213.063C149.771 212.926 153.042 211.669 154.297 211.12C154.496 211.032 154.469 210.446 154.673 210.351C156.606 209.455 158.577 209.173 160.174 207.834L167.223 207.982C167.29 207.243 168.033 207.18 168.164 207.021C168.906 206.147 169.298 204.062 170.04 203.188C170.125 203.082 170.925 202.266 170.982 202.227C171.82 201.711 173.285 201.965 173.638 200.681L174.034 202.779L174.899 203.443C173.58 203.727 172.539 204.773 171.969 206.036L176.912 204.67C177.768 203.7 177.141 203.152 177.087 202.377C177.053 201.902 178.03 201.607 176.696 201.23L179.15 198.16L182.483 197.663C182.554 197.517 182.136 197.129 182.19 196.804C182.433 195.441 183.08 194.235 183.877 193.355C187.469 189.391 192.048 185.967 195.021 181.254L195.699 182.303L199.115 181.137L198.042 177.991C199.134 175.993 200.285 174.02 201.424 172.051C209.277 158.476 213.65 149.863 213.503 133.784C213.496 133.351 214.164 132.56 213.392 131.589L220.803 129.06L220.218 127.347L225.916 125.403L224.564 123.312C223.714 123.512 222.83 124.044 221.998 124.186C221.769 124.226 221.46 123.769 221.231 123.808C219.49 124.127 218.418 125.024 217.153 125.839L217.544 126.986C216.71 127.609 216.29 126.902 215.925 126.899C215.261 126.895 214.588 127.617 213.638 126.72L213.443 126.146C214.194 125.263 213.344 124.549 213.234 123.665C212.779 119.975 212.787 115.775 211.808 112.027C211.083 109.248 208.433 104.004 208.297 101.735C208.227 100.594 210.35 100.387 210.563 99.0483C208.974 97.8504 208.922 99.2499 207.614 99.7347C207.079 97.1403 205.237 95.6636 204.702 93.0692L206.697 92.3893L207.144 89.0437L204.117 91.356L200.249 83.738L203.1 82.7651L202.664 75.896L207.146 76.9185L209.21 72.7022L207.163 66.7027L209.247 65.3515L209.255 65.3547C209.265 66.3941 210.12 66.3206 210.313 66.5874C211.951 68.9012 213.464 72.0633 214.947 74.5771C216.978 78.0235 219.719 82.1106 221.324 85.8047C222.162 87.7387 224.434 93.7458 224.639 95.5249C224.707 96.097 223.756 97.7203 224.381 98.4858L222.957 98.9707C221.709 100.734 223.281 101.657 224.037 103.068L222.614 103.554L222.05 104.706L223.402 106.798L222.85 108.899L226.188 109.354C226.566 110.126 226.656 111.248 227.066 111.927C227.852 113.239 229.226 113.173 229.763 116.112C229.801 116.335 229.356 116.641 229.387 116.88C229.83 120.292 230.203 123.441 230.228 126.804C230.253 130.167 229.893 134.385 229.556 137.885C229.219 141.384 228.115 142.17 226.947 145.159C224.787 150.663 223.708 157.449 222.328 163.332C221.087 168.631 220.309 173.1 217.493 178.066C211.6 188.465 203.761 197.223 195.043 205.514C192.49 207.94 191.09 208.079 188.217 209.757C184.617 211.862 181.398 215.404 177.61 217.841C173.823 220.278 168.493 223.127 164.14 224.99C162.977 225.489 159.422 226.868 158.443 226.934C158.28 226.945 157.014 226.468 157.479 225.983C158.13 225.402 160.853 221.268 159.818 220.719C158.284 222.208 157.224 223.927 154.985 224.281L153.681 227.919C152.345 228.266 151.008 228.985 149.692 229.28C145.121 230.312 139.471 230.983 134.519 231.332V231.337L134.511 231.341C134.507 231.338 134.503 231.336 134.498 231.334C134.045 231.365 133.598 231.395 133.158 231.422C133.063 231.482 132.978 231.53 132.898 231.533C132.374 231.546 131.828 231.539 131.267 231.518C115.062 232.217 98.1378 228.262 83.5249 221.857C79.9544 220.292 77.1816 218.243 73.7649 216.568L73.7573 215.726C73.1036 215.335 72.4529 214.929 71.8038 214.5C68.9978 212.645 65.6965 209.996 62.9791 207.765C60.2619 205.535 60.2241 204.181 58.3932 201.545C55.0283 196.684 49.9965 192.006 45.8812 187.58C42.1741 183.596 38.8974 180.459 36.3442 175.353C30.9963 164.663 28.0932 153.273 26.0691 141.414C25.4786 137.942 26.144 136.702 26.3525 133.382C26.6119 129.219 25.4656 124.572 25.553 120.069C25.6405 115.567 26.2462 109.553 27.1262 104.9C27.36 103.657 28.197 99.9371 28.6886 99.0871C28.7702 98.9465 29.8718 98.1603 30.015 98.8177C30.1342 99.6814 32.0487 104.246 33.0815 103.692C32.6998 101.589 31.8637 99.7517 32.8176 97.695L30.5246 94.5853C30.9812 93.2825 31.1302 91.7712 31.6183 90.5145C33.6064 85.3783 36.837 79.2817 39.6532 74.5868C42.8811 69.1965 46.759 64.1045 51.0802 59.3843L50.7192 59.4489L51.9325 56.4815L56.2835 52.4441L58.5171 52.0012C59.2756 51.3152 60.043 50.6401 60.8176 49.9755C61.2276 48.7577 62.189 47.3804 62.7194 47.0555C63.1888 46.7673 63.9589 46.7607 64.4283 46.4725C65.2055 46.0026 65.3555 45.3952 66.2267 45.2194L66.217 45.2291L66.2277 45.6008C68.9844 43.5005 71.8073 41.5346 74.6646 39.7177C77.9541 37.6256 81.2006 36.4659 84.4958 34.5629L85.4914 35.2191L89.0719 31.0459L90.2087 30.658C92.7086 31.1229 95.7054 29.172 98.3816 28.5084C98.593 28.4562 98.9285 28.9351 99.1477 28.8866C100.37 28.6168 101.62 27.9415 102.851 27.6238L102.846 27.6259L102.502 32.2085C104.467 31.9282 104.915 29.875 106.191 29.0364C107.683 26.6401 110.257 25.3014 113.018 24.7942C113.239 24.7515 113.546 25.2021 113.784 25.1724C114.878 25.0297 115.358 25.0135 116.261 24.9677ZM149.952 225.365C151.369 225.181 150.994 223.452 152.395 223.249L150.594 222.594L149.952 225.365ZM153.732 221.523L153.927 222.096L155.065 221.708L154.869 221.135L153.732 221.523ZM111.957 220.894L112.402 221.663L113.514 221.024L113.077 220.269L111.957 220.894ZM162.671 219.753L160.963 220.335L161.06 220.622L162.211 221.189L162.677 219.75L162.671 219.753ZM154.29 219.42L154.485 219.993L155.623 219.605L155.427 219.032L154.29 219.42ZM108.403 214.59L109.015 214.631C108.842 214.531 108.647 214.438 108.427 214.355L108.403 214.59ZM74.2336 208.907L74.7993 209.059L74.9394 208.83C74.928 208.922 74.9395 209.014 74.9695 209.105L75.4038 209.222L75.7152 208.062L74.5461 207.747L74.2336 208.907ZM175.717 207.636L176.108 208.782L177.245 208.395L176.854 207.248L175.717 207.636ZM183.52 206.254L178.568 206.663L179.921 208.754C180.943 208.367 182.029 208.093 183.057 207.684C183.967 207.323 184.523 206.653 183.524 206.246L183.52 206.254ZM185.604 204.902L185.996 206.049L187.132 205.661L186.741 204.514L185.604 204.902ZM188.08 204.698L188.471 205.844L189.216 204.31L188.08 204.698ZM81.552 204.959L81.4949 205.169L81.886 205.361L82.6435 205.565L82.6446 205.56L82.9571 204.399L81.552 204.959ZM189.203 202.401L189.594 203.548L190.731 203.159L190.34 202.014L189.203 202.401ZM191.587 202.862C191.958 202.735 191.763 202.162 191.392 202.288C191.02 202.415 191.215 202.988 191.587 202.862ZM209.852 176.201C208.966 176.26 207.709 177.098 206.715 177.271L207.871 178.789C205.195 179.677 208.154 180.612 209.508 180.783L210.931 180.298L210.346 178.584L212.341 177.904L212.235 176.667C211.273 177.434 210.357 176.169 209.852 176.201ZM54.9323 180.659L54.9333 180.653L55.6941 178.988L53.3807 177.122L54.9323 180.659ZM49.5717 177.343C50.5203 177.335 50.5236 178.024 51.1632 178.396L51.1653 178.39L51.4767 177.23L49.7279 176.76L49.5717 177.343ZM46.0633 176.4L47.2324 176.715L47.5438 175.554L46.3747 175.24L46.0633 176.4ZM48.1311 175.705L49.3001 176.02L49.4564 175.437L48.2873 175.122L48.1311 175.705ZM44.6335 174.767L45.8036 175.08L45.9599 174.497L44.7908 174.183L44.6335 174.767ZM41.7878 173.689L42.43 174.799L43.3071 175.035L43.542 174.16L42.8998 173.05L41.7878 173.689ZM202.487 172.341L203.267 174.628C203.597 174.79 206.606 173.232 207.541 173.169C208.066 173.137 209.269 174.531 210.498 173.44L209.627 171.824L208.771 172.116L208.774 172.109C208.445 170.321 206.511 171.102 205.233 170.125L202.487 172.341ZM212.49 172.754L211.927 173.906L213.078 174.473L213.641 173.321L213.348 172.461L212.49 172.754ZM47.1279 165.458C46.8091 165.641 46.4255 169.008 45.9566 169.82C45.6906 170.274 43.8623 170.495 44.0829 172.124L45.9103 172.302L46.1452 171.428L46.1495 171.435C47.8172 172.158 48.2469 170.117 49.771 169.601L49.4618 166.085L47.1279 165.458ZM41.1068 166.96C41.8616 164.244 39.435 166.18 38.538 167.208L38.148 168.66L39.8968 169.13L39.3505 171.165L40.4344 171.767C40.3337 170.541 41.8966 170.486 42.152 170.048C42.5966 169.28 42.6013 167.768 43.0118 166.847L41.1068 166.96ZM211.423 170.559L211.814 171.706L212.385 171.51L211.994 170.364L211.423 170.559ZM211.417 168.654L211.808 169.8L212.945 169.413L212.554 168.266L211.417 168.654ZM210.253 167.132L210.645 168.278L211.216 168.083L210.825 166.936L210.253 167.132ZM211.753 164.067L210.617 164.455L211.201 166.169L211.772 165.974C211.236 165.191 211.807 164.804 211.759 164.065L211.753 164.067ZM211.531 159.677L209.724 159.974L209.466 162.935L211.537 159.675L211.531 159.677ZM30.7832 140.18C30.885 139.801 30.3013 139.644 30.1992 140.023C30.0974 140.402 30.6814 140.559 30.7832 140.18ZM30.4277 139.147L31.5978 139.461L31.9092 138.301L30.7391 137.986L30.4277 139.147ZM30.3177 137.248L30.6291 136.088L29.459 135.773L30.3177 137.248ZM30.3576 134.764L31.5267 135.078L31.8392 133.917L30.669 133.604L30.3576 134.764ZM31.809 127.052C31.5606 128.116 31.1832 129.172 30.9492 130.253C30.7422 131.21 30.9877 132.045 31.8834 131.441L31.8791 131.434L34.2991 127.096L31.809 127.052ZM222.702 127.145L223.093 128.292L224.23 127.904L223.839 126.757L222.702 127.145ZM33.5987 125.032L34.7689 125.346L35.0803 124.185L33.9112 123.872L33.5987 125.032ZM216.762 122.787L215.625 123.175L216.873 124.029L217.159 123.931L216.768 122.785L216.762 122.787ZM224.665 110.519L223.528 110.907L224.776 111.761L225.062 111.664L224.67 110.517L224.665 110.519ZM31.3575 105.417L32.2917 106.607L32.2939 106.601L32.7615 104.857L32.4695 104.778L31.3575 105.417ZM36.3453 100.832L36.9304 100.988L37.2418 99.8284L36.6567 99.6711L36.3453 100.832ZM218.469 97.9503L218.763 98.8091L219.912 99.3769L220.199 99.2789L219.614 97.5657L219.606 97.5624L218.469 97.9503ZM34.9101 99.1948L35.4952 99.3522L35.8066 98.1917L35.2225 98.0344L34.9101 99.1948ZM214.044 92.441C211.854 93.1629 208.992 93.5062 209.693 96.4785L212.914 94.7394L212.83 96.3621L214.173 97.4956L216.74 96.6207L216.824 94.999L214.822 94.7221L214.044 92.441ZM34.7237 92.9119C34.0864 94.1914 35.7309 94.8437 35.118 96.1196L36.6664 94.9904L34.7237 92.9119ZM211.83 89.6913L212.98 90.258L213.544 89.1062L212.393 88.5383L211.83 89.6913ZM209.678 70.3156L210.263 72.0299L211.4 71.642L210.815 69.9277L209.678 70.3156ZM53.7341 68.7112L54.9032 69.0247L55.2156 67.8653L54.0455 67.5507L53.7341 68.7112ZM51.3259 63.6943C51.2619 64.8647 50.0118 64.6663 50.4089 65.942C50.5231 66.3103 51.3405 67.6552 51.5532 67.4936L51.5575 67.5011L51.676 64.7255L51.3259 63.6943ZM202.582 64.4389L202.973 65.5853L204.111 65.1974L203.719 64.051L202.582 64.4389ZM52.0359 61.077L52.1523 62.9778L53.51 64.9L53.5089 64.9054L54.3687 61.7042L54.0379 59.4338L52.0359 61.077ZM58.3329 60.9068L58.2542 61.1977L59.8457 62.2504L59.8478 62.2451L60.3166 60.5017L58.3329 60.9068ZM188.061 59.1828L188.452 60.3293L189.59 59.9403L189.199 58.7949L188.061 59.1828ZM66.4766 56.2175C66.8428 57.2931 67.5687 57.5197 68.5174 57.7314C69.3011 56.8411 69.9642 56.1438 70.3998 55.2068C69.8786 55.0818 69.4124 54.9341 69.0648 54.7305C68.6198 54.4734 68.2744 52.699 67.4917 52.4387L66.4766 56.2175ZM187.932 55.0807L187.477 57.4696L190.698 55.7305L189.543 54.2112L187.932 55.0807ZM184.213 55.3835L184.605 56.53L185.176 56.3349L184.784 55.1885L184.213 55.3835ZM70.5572 52.6499L70.9407 52.7522C70.9555 52.402 70.953 52.0213 70.9321 51.6047C70.9307 51.5757 70.933 51.543 70.9375 51.5066L70.8696 51.4894L70.5572 52.6499ZM84.3363 43.254L84.3406 43.2616L86.0894 43.7314L86.167 43.4394L85.5248 42.3295L84.3363 43.254ZM133.396 36.9905L133.98 38.7037L134.552 38.5087L133.967 36.7955L133.396 36.9905ZM108.426 34.6523L108.44 36.5617L110.72 35.7837L109.564 34.2644L108.426 34.6523ZM105.919 31.0427C105.254 30.7578 103.808 33.362 102.893 33.355L103.297 36.4097C105.202 35.0369 105.407 33.1493 105.921 31.0481L105.919 31.0427ZM153.57 34.5661L153.961 35.7126L154.532 35.5176L154.141 34.3711L153.57 34.5661ZM145.756 34.0457L146.327 33.8507L146.412 32.229L146.029 32.0404L145.756 34.0457ZM109.446 32.0717L111.552 33.5867L111.923 31.867L111.812 29.6721L109.446 32.0717Z" fill="#FF0080"/>
<path d="M61.9253 222.855L61.9188 222.856L61.9177 222.85L61.9253 222.855Z" fill="#FF0080"/>
<path fill-rule="evenodd" clip-rule="evenodd" d="M35.8227 68.0797C33.6754 72.7987 30.2933 77.4642 28.2867 82.18C26.7489 85.7846 25.6601 90.6272 24.5294 94.3924C21.1267 105.747 20.2092 113.868 20.0394 126.124C19.9684 131.518 19.6752 137.613 19.9489 143.141C20.2227 148.669 23.799 156.319 25.719 161.508C28.5272 169.075 31.4993 176.181 35.6245 183.155C36.1919 184.107 37.4082 184.807 37.4336 186.253L40.5864 190.069C39.3302 192.485 37.7978 190.39 36.2009 189.857C35.9834 189.784 35.602 190.186 35.3648 190.123C34.8219 189.983 34.266 189.372 33.7496 189.26C32.6815 189.025 31.3204 191.818 29.5269 191.979C25.508 191.249 20.6949 192.747 18.1161 195.831L10.5466 181.477C12.6086 181.14 14.0494 179.836 15.6066 178.494C15.8257 178.305 16.2927 178.404 16.4427 178.228C16.9185 177.662 17.1509 176.631 17.6258 176.016C17.7763 175.825 18.3253 175.94 18.462 175.749C19.0121 174.967 19.9147 173.318 20.2345 172.434C20.3113 172.212 19.9236 171.833 19.9899 171.591C20.1486 171.035 20.7549 170.46 20.8767 169.933C21.0728 169.111 20.831 166.032 20.7905 164.912C20.6485 161.151 20.2567 159.765 18.7734 156.37C17.9996 154.61 18.2158 154.126 16.7207 152.429C16.5384 152.225 16.6528 151.75 16.4772 151.585C16.0971 151.218 15.2898 151.093 14.8631 150.722C14.6792 150.56 14.8035 150.014 14.6185 149.88C11.406 147.485 5.20741 145.184 1.64104 144.362C0.966518 144.208 0.646284 144.222 0 144.197C0.706941 142.615 1.86387 141.073 2.51274 139.496C2.59782 139.285 2.19198 138.874 2.26922 138.652C2.60143 137.732 3.35687 136.825 3.74756 135.886L1.93951 132.787C3.28886 131.912 3.90985 133.063 4.8089 133.252C5.9181 133.488 6.33189 131.999 6.65251 131.749C9.32068 129.654 12.3913 129.107 13.485 125.45L16.7261 123.27L14.0808 120.437C14.8476 119.678 14.2177 119.155 14.2791 118.768C14.8333 115.172 15.9757 110.878 14.9956 107.061L18.3941 100.701L14.1972 102.72L12.86 98.0926L14.0884 98.3921C14.9102 96.2442 15.7367 95.5024 17.9189 95.1079L18.0213 92.3182L19.5966 90.6718L17.6851 90.3636L15.9126 93.6791L13.2177 92.2385L11.7394 95.0055L11.706 95.0023C11.3963 94.0101 10.4178 93.815 10.1178 93.441C9.26022 92.3696 9.09696 91.9608 8.0134 90.897C7.50883 90.3992 6.98577 86.428 6.43378 85.434L9.59626 85.3489L13.1272 86.5234C13.517 86.3397 14.0419 86.3204 14.3825 86.1247C15.089 85.7251 16.203 84.4599 16.9416 83.9352C17.3294 83.6651 18.3754 83.6542 18.6107 83.4094C19.3534 82.6303 20.2265 81.6071 20.7775 80.6542L24.2105 80.7135C24.8484 80.0779 23.9125 78.4655 23.7784 77.6383C23.7545 77.4758 24.0982 77.247 24.0747 77.0845C23.8832 75.8059 22.8378 74.6052 23.9389 73.4543C24.151 73.2399 25.1579 73.1725 25.608 72.9285C27.4889 71.9165 29.894 70.029 31.7982 69.1292C32.8864 68.6132 34.6128 68.1744 35.8227 68.0797ZM23.5349 183.081C21.6103 181.525 19.7312 183.442 18.9199 185.233L18.9652 187.745L20.0459 188.323C19.1668 189.656 19.9356 190.659 21.3141 191.132C22.1604 190.237 21.7954 189.699 21.8087 188.908C21.8146 188.454 21.5518 186.882 21.6147 186.673C21.8675 185.811 23.6149 183.397 23.5349 183.081ZM19.5222 180.222L20.6019 180.8L21.1913 179.696L20.9219 179.552L19.5222 180.222ZM7.132 133.425L7.49835 134.689L8.75257 134.29L9.1965 133.459L9.19111 133.456L7.57701 132.593L7.132 133.425ZM9.78697 132.356L9.79236 132.358L11.9732 132.812L13.7619 132.699L12.345 130.167L9.78697 132.356Z" fill="#FF0080"/>
<path fill-rule="evenodd" clip-rule="evenodd" d="M78.8895 33.8862C77.8677 33.883 77.8657 34.8312 77.6622 34.9454C76.3976 35.6327 74.4913 35.861 73.1022 36.5013C70.8682 37.526 68.3586 39.5207 66.2752 40.7435C65.1649 41.3974 62.4781 42.9978 61.3402 43.0666C60.9966 43.0878 60.1511 42.2955 59.8112 42.3091C57.973 42.4184 56.354 45.6955 53.9183 43.6797L51.5489 45.1278L54.7071 46.9229C55.059 47.4682 54.2184 49.233 53.9657 49.4087C53.3275 49.8568 51.8516 50.5018 51.3108 50.955C46.6853 54.8429 41.7 59.8454 37.5112 64.6016C37.1894 64.9673 37.0696 65.8335 36.7645 66.1359C35.8172 67.0598 35.5688 65.1364 34.8551 65.1942L32.4512 61.8679C33.4663 61.8155 33.3246 61.212 33.6785 60.8098C33.7979 60.6735 34.1456 60.7398 34.2496 60.6148C35.3811 59.2558 39.7887 48.6731 39.6694 47.5942C39.5909 46.8789 38.956 46.0078 38.8893 45.3078C38.6887 43.1304 38.8464 38.7131 39.0089 36.3289C39.069 35.4576 39.8198 34.2545 39.2686 33.3679C40.3111 33.1145 41.3776 32.5016 42.4052 32.298C43.3014 32.1201 45.7661 32.1818 46.7852 32.0836C47.8043 31.9853 48.4766 31.0582 49.6439 32.0674L47.2022 36.0929L51.4261 40.0776L51.9982 39.8825C52.1658 38.8593 53.044 39.0776 53.511 38.7264C54.4224 38.0507 56.0839 36.1138 56.9149 35.6512C57.9493 35.0744 59.9628 34.8993 61.0988 34.8635C62.1414 34.8341 67.6255 35.3685 68.1479 35.0111C69.6995 33.9508 70.2952 33.8826 71.9407 33.0781C72.1423 32.9773 72.1188 32.4029 72.3167 32.3098C73.8171 31.6319 75.6127 31.2979 77.1526 30.6591L78.8895 33.8862ZM47.1979 49.1652L47.5891 50.3117L49.2969 49.7288L48.9058 48.5823L47.1979 49.1652ZM57.3146 39.6476L57.4127 39.9342L59.1216 39.3513L58.5365 37.6381L57.3146 39.6476Z" fill="#FF0080"/>
<path fill-rule="evenodd" clip-rule="evenodd" d="M109.595 1.67529C110.46 2.3781 114.164 3.55171 114.565 4.12554C115.419 5.35681 115.783 5.58461 116.678 6.59733C116.99 6.95145 117.032 7.93488 117.932 8.40215L117.93 8.43448L115.079 9.40747L116.055 12.2672L112.637 13.433L112.651 15.3424L114.449 14.0881L117.12 14.4567C117.817 12.4022 118.644 11.7229 120.81 11.2845L120.704 10.041L124.915 12.1163L122.377 15.8563L128.93 13.6194C132.42 15.2115 136.677 14.8211 140.182 14.8855C140.56 14.8911 140.965 15.5915 141.801 14.9739L144.109 18.0178L146.661 15.2346C150.304 14.7851 151.276 11.8943 153.663 9.65314C153.947 9.3834 155.426 9.2298 155.363 8.11231C155.316 7.20735 154.311 6.41155 155.343 5.24722L158.027 7.52399C158.978 7.30181 159.953 6.71957 160.878 6.551C161.101 6.51326 161.432 6.97599 161.645 6.92921C163.243 6.56326 164.88 5.69682 166.491 5.27524C166.419 5.9074 166.359 6.21676 166.407 6.89796C166.666 10.501 167.948 16.91 169.755 20.4325C169.857 20.634 170.393 20.6045 170.522 20.8096C170.812 21.2864 170.813 22.0931 171.107 22.5239C171.238 22.722 171.706 22.6908 171.874 22.9021C173.27 24.6389 173.762 24.5091 175.325 25.556C178.34 27.5665 179.601 28.1795 183.162 28.948C184.222 29.1751 187.118 29.9263 187.93 29.8736C188.449 29.8436 189.085 29.3515 189.639 29.2907C189.879 29.2663 190.183 29.7066 190.406 29.6689C191.295 29.5063 192.997 28.9063 193.823 28.503C194.024 28.4022 193.995 27.8489 194.199 27.7347C194.855 27.3766 195.87 27.3243 196.479 26.9568C196.669 26.8407 196.642 26.3698 196.855 26.1885C198.361 24.9005 199.814 23.7197 200.438 21.7729L212.994 31.5329C209.679 33.5214 207.546 37.947 207.65 41.974C207.234 43.6897 204.375 44.5441 204.442 45.6213C204.473 46.1417 204.972 46.7837 205.026 47.3346C205.051 47.5755 204.613 47.8791 204.65 48.1028C204.923 49.7435 206.693 51.5843 204.21 52.3999L201.038 48.6965C199.664 48.4292 199.176 47.1305 198.354 46.4197C192.319 41.2426 185.99 37.1635 179.198 33.1664C174.539 30.4312 167.78 25.6747 162.557 24.4818C157.333 23.289 151.486 22.5511 146.34 21.7158C134.646 19.8262 126.779 19.3565 115.469 20.759C111.717 21.2264 106.947 21.4724 103.289 22.3623C98.5039 23.5214 93.5656 26.0247 88.7573 27.3199C89.0251 26.1601 89.6966 24.5559 90.3477 23.5853C91.484 21.886 93.6335 19.8663 94.8732 18.2085C95.1717 17.8122 95.3834 16.844 95.6188 16.6742C96.8762 15.7973 97.8658 17.0151 99.055 17.4155C99.2061 17.4662 99.4747 17.1704 99.6261 17.2205C100.394 17.4894 101.792 18.6692 102.491 18.1557L102.938 14.8101C103.927 14.4345 105.029 13.7579 105.88 13.1669C106.148 12.9794 106.311 11.9637 106.626 11.6325C107.234 11.0028 108.603 10.1335 109.087 9.51414C109.323 9.21605 109.418 8.7102 109.65 8.36229L109.05 4.73433L109.595 1.67529ZM202.785 30.5373C200.961 31.0253 198.859 32.5301 200.058 34.6609C200.348 34.7916 202.902 33.4981 203.76 33.397C203.968 33.3709 205.428 33.8905 205.86 33.9606C206.616 34.0804 207.074 34.5249 208.05 33.8528C207.802 32.4341 206.96 31.5185 205.561 32.1493L205.17 31.0028L202.785 30.5373ZM197.082 31.5297L197.18 31.8163L198.317 31.4284L197.926 30.283L197.082 31.5297ZM151.319 14.9178L153.522 16.7194L153.892 14.9997L153.781 12.8048L153.779 12.7995L151.319 14.9178ZM154.33 10.6919L154.914 12.4051L154.916 12.4115L155.774 12.1185L156.337 10.9666L155.187 10.3998L154.33 10.6919Z" fill="#FF0080"/>
<path d="M77.1623 30.6559C77.1592 30.6571 77.1556 30.6578 77.1526 30.6591L77.1472 30.6483L77.1623 30.6559Z" fill="#FF0080"/>
<path d="M151.178 76.7283C152.954 72.2088 158.021 69.9053 162.61 71.5757C166.548 73.0091 168.874 76.9094 168.479 80.8961L167.117 83.0867L167.116 83.0877L167.108 83.1007C167.102 83.1095 167.095 83.1233 167.085 83.1395C167.065 83.1717 167.036 83.2183 166.999 83.2785C166.925 83.3993 166.817 83.5752 166.681 83.7989C166.409 84.2464 166.023 84.8883 165.56 85.6737C164.638 87.2417 163.401 89.398 162.161 91.7336C160.927 94.0569 159.655 96.6218 158.681 98.9939C158.277 99.976 157.875 101.043 157.552 102.118H86.2314C82.9408 102.118 80.2728 104.786 80.2728 108.076V158.268C80.2731 161.559 82.941 164.227 86.2314 164.227H169.292C172.582 164.227 175.25 161.559 175.25 158.268V118.757C179.638 117.119 182.953 113.284 183.857 108.589V158.268L183.851 158.645C183.655 166.389 177.413 172.632 169.668 172.829L169.292 172.833H86.2314L85.8553 172.829C78.1104 172.633 71.8676 166.389 71.6711 158.645L71.6667 158.268V108.076C71.6667 100.158 77.9853 93.7152 85.8553 93.5158L86.2314 93.5115H90.2041L86.4113 83.0899C84.7145 78.4276 87.1184 73.2728 91.7805 71.5757C96.4428 69.8791 101.598 72.2827 103.295 76.9449L109.324 93.5115H145.065L151.095 76.9449L151.178 76.7283Z" fill="url(#paint0_linear_37_18)"/>
<path d="M134.226 138.869C137.553 138.869 140.251 141.568 140.251 144.896C140.251 148.223 137.553 150.921 134.226 150.921H121.516C118.189 150.921 115.492 148.223 115.491 144.896C115.491 141.568 118.189 138.869 121.516 138.869H134.226Z" fill="url(#paint1_linear_37_18)"/>
<path d="M111.221 120.175C113.152 119.88 114.979 121.178 115.325 123.113C115.671 125.047 114.408 126.898 112.494 127.291L112.403 127.309L91.5866 131.035C89.6215 131.386 87.7429 130.077 87.3908 128.112C87.0392 126.147 88.3476 124.268 90.313 123.917L111.129 120.191L111.221 120.175Z" fill="url(#paint2_linear_37_18)"/>
<path d="M140.418 123.113C140.764 121.178 142.59 119.88 144.521 120.175L144.614 120.191L165.43 123.917C167.395 124.269 168.704 126.147 168.352 128.112C168 130.077 166.121 131.386 164.157 131.035L143.34 127.309L143.249 127.291C141.334 126.898 140.072 125.047 140.418 123.113Z" fill="url(#paint3_linear_37_18)"/>
<path d="M180.131 106.001C180.131 111.326 175.815 115.642 170.49 115.642C165.165 115.642 160.849 111.326 160.849 106.001C160.849 100.676 170.49 85.1846 170.49 85.1846C170.49 85.1846 180.131 100.676 180.131 106.001Z" fill="#FF0080"/>
<defs>
<linearGradient id="paint0_linear_37_18" x1="117.029" y1="116.159" x2="117.029" y2="150.445" gradientUnits="userSpaceOnUse">
<stop stop-color="#E20068"/>
<stop offset="1" stop-color="#190038"/>
</linearGradient>
<linearGradient id="paint1_linear_37_18" x1="117.029" y1="116.159" x2="117.029" y2="150.445" gradientUnits="userSpaceOnUse">
<stop stop-color="#E20068"/>
<stop offset="1" stop-color="#190038"/>
</linearGradient>
<linearGradient id="paint2_linear_37_18" x1="117.029" y1="116.159" x2="117.029" y2="150.445" gradientUnits="userSpaceOnUse">
<stop stop-color="#E20068"/>
<stop offset="1" stop-color="#190038"/>
</linearGradient>
<linearGradient id="paint3_linear_37_18" x1="117.029" y1="116.159" x2="117.029" y2="150.445" gradientUnits="userSpaceOnUse">
<stop stop-color="#E20068"/>
<stop offset="1" stop-color="#190038"/>
</linearGradient>
</defs>
</svg>
